# xmcd
#
# Track frame offsets:
#	150
#	25376
#	32423
#	56769
#	61022
#	78681
#	91267
#	117198
#	121613
#	144989
#	158363
#	176505
#
# Disc length: 2769 seconds
#
# Revision: 1
# Processed by: cddbd v1.5.2PL0 Copyright (c) Steve Scherf et al.
# Submitted via: audiograbber 1.83.01
#
DISCID=890acf0c
DTITLE=Ratz Fatz - Schrammeljazz
DYEAR=2009
DGENRE=Kinderlieder
TTITLE0=Die Tante Hermine
TTITLE1=Hermine macht sich auf den Weg
TTITLE2=Onkel Mastablasta
TTITLE3=Bei den Warumbas
TTITLE4=Warumba
TTITLE5=Im Kochental
TTITLE6=Der Schrammeljazz und seine Freunde
TTITLE7=Bei den Gärtnern
TTITLE8=Unser Garten
TTITLE9=Hermines Rückkehr
TTITLE10=Der Kuckuck und der Hai
TTITLE11=Guten Morgen, Nachbar
EXTD=
EXTT0=
EXTT1=
EXTT2=
EXTT3=
EXTT4=
EXTT5=
EXTT6=
EXTT7=
EXTT8=
EXTT9=
EXTT10=
EXTT11=
PLAYORDER=
